# xmcd
#
# Track frame offsets:
#	150
#	20081
#	35218
#	54068
#	71891
#	95176
#	116770
#	135718
#	152400
#	170927
#	185052
#	204215
#
# Disc length: 2890 seconds
#
# Revision: 1
# Processed by: cddbd v1.5.2PL0 Copyright (c) Steve Scherf et al.
# Submitted via: dBpowerAMP V4.0
#
DISCID=b30b480c
DTITLE=Jacob and The Jackals - Jacob and The Jackals
DYEAR=2005
DGENRE=Blues
TTITLE0=Lafayette Girl
TTITLE1=Rainy Blues
TTITLE2=They Raided That Joint
TTITLE3=Standin' On The Border
TTITLE4=Taxman Blues
TTITLE5=Don't You Get It
TTITLE6=Got Yourself To Blame
TTITLE7=Smooth Operator
TTITLE8=Lonely, Lonely Nights
TTITLE9=Tell Me
TTITLE10=The Jackal Stomp
TTITLE11=Mississippi
EXTD=
EXTT0=
EXTT1=
EXTT2=
EXTT3=
EXTT4=
EXTT5=
EXTT6=
EXTT7=
EXTT8=
EXTT9=
EXTT10=
EXTT11=
PLAYORDER=
